# xmcd
#
# Track frame offsets:
#	179
#	13344
#	24025
#	36798
#	49625
#	62372
#	76831
#	90998
#	100585
#	111807
#	124795
#
# Disc length: 1836 seconds
# Revision: 0
# Processed by: cddbd v1.5.2PL0 Copyright (c) Steve Scherf et al.
# Submitted via: dBpowerAMP V12.0
#
DISCID=71072a0b
DTITLE=Johnny Cash - Complete Columbia Album Collection, Disc 39 [Precious Memories]
DYEAR=1975
DGENRE=Country
TTITLE0=Precious Memories
TTITLE1=Rock of Ages
TTITLE2=The Old Rugged Cross
TTITLE3=Softly and Tenderly
TTITLE4=In the Sweet By and By
TTITLE5=Just As I Am
TTITLE6=Farther Along
TTITLE7=When the Roll is Called Up Yonder
TTITLE8=Amazing Grace
TTITLE9=At the Cross
TTITLE10=Have Thine Own Way Lord
EXTD=
EXTT0=
EXTT1=
EXTT2=
EXTT3=
EXTT4=
EXTT5=
EXTT6=
EXTT7=
EXTT8=
EXTT9=
EXTT10=
PLAYORDER=
